<svg xmlns="http://www.w3.org/2000/svg" viewBox="0 0 512 512" role="img" aria-label="Yap">
  <rect width="512" height="512" rx="114" fill="#c4673f"/>
  <path d="M173.1 105.5C177.8 105.1 184.1 105.1 189.7 105C195.3 104.9 201.1 105 206.8 105C212.5 105 218.2 105 223.9 105C229.6 105 235.3 105 241 105C246.7 105 252.4 105 258.1 105C263.8 105 269.5 105 275.3 105C281 105 286.7 105 292.4 105C298.1 105 303.8 105 309.5 105C315.2 105 321.1 104.8 326.6 105C332.1 105.1 337.3 105.3 342.3 106C347.3 106.7 352.2 108 356.5 109.3C360.9 110.7 364.7 112.3 368.5 114.1C372.3 115.9 375.9 118 379.4 120.3C382.8 122.7 386.3 125.3 389.3 128.1C392.4 130.8 395.3 133.8 397.9 136.8C400.5 139.8 402.9 143 405 146.3C407.2 149.7 409.2 153 411 156.9C412.8 160.8 414.6 165.2 415.9 169.7C417.3 174.2 418.4 179 419 184C419.7 189 419.7 194.2 419.8 199.7C420 205.1 420.1 211.3 419.8 216.8C419.6 222.2 419.2 227.7 418.4 232.5C417.6 237.3 416.5 241.3 415 245.6C413.6 249.9 411.6 254.4 409.7 258.1C407.8 261.9 405.9 264.9 403.6 268.3C401.3 271.6 398.5 275 395.7 278.1C392.9 281.2 389.8 284 386.7 286.7C383.5 289.3 380.2 291.7 376.7 293.8C373.3 295.9 369.8 297.8 366 299.5C362.2 301.2 358.1 302.7 353.7 304C349.3 305.2 344.2 306 339.4 306.9C334.7 307.8 329.5 308.1 325.2 309.5C320.8 310.9 316.5 312.6 313.2 315.2C309.8 317.8 307.4 321.5 305.2 325.1C303 328.7 301.9 332.8 300.3 336.6C298.6 340.4 297.2 344.3 295.2 348C293.2 351.8 290.7 356 288.1 359.1C285.5 362.3 282.9 364.6 279.5 366.8C276.2 369 272.6 371.1 268.1 372.2C263.6 373.4 257.2 374.1 252.4 373.9C247.7 373.6 243.6 372.4 239.6 370.7C235.6 369 231.5 366.3 228.4 363.7C225.3 361.1 223.2 358.4 220.9 355.1C218.6 351.8 216.6 347.7 214.7 343.7C212.8 339.7 211.4 335.2 209.6 331.3C207.9 327.4 206.5 323.7 203.9 320.5C201.4 317.3 198.1 314.4 194.3 312.3C190.5 310.3 185.7 309.4 181.1 308.3C176.5 307.3 171.5 307 166.9 306C162.2 305 157.4 303.8 153.2 302.4C148.9 300.9 144.9 299.1 141.2 297.2C137.5 295.3 134.3 293.3 130.9 290.9C127.6 288.6 124.3 285.9 121.2 283.1C118.2 280.2 115.3 277.1 112.7 273.9C110.1 270.7 107.7 267.4 105.5 263.9C103.4 260.4 101.5 256.8 99.8 252.9C98.2 249.1 96.7 245.4 95.6 241C94.4 236.5 93.3 231.5 92.7 226.2C92.1 221 92.2 215.3 92.2 209.6C92.1 204 91.9 197.9 92.2 192.5C92.6 187.1 93.2 182 94.1 177.3C95.1 172.5 96.5 168.1 98 164C99.5 159.9 101.2 156.2 103.2 152.6C105.2 149 107.4 145.5 109.8 142.2C112.3 138.9 115 135.6 117.9 132.6C120.7 129.7 123.8 127 126.9 124.5C130.1 122 133.3 119.7 136.9 117.6C140.5 115.6 144.3 113.6 148.3 111.9C152.4 110.3 157 108.8 161.2 107.7C165.3 106.6 168.3 106 173.1 105.5Z" fill="#faf3ed"/>
  <path d="M181.8 176.6 Q256 243.2 330.2 176.6" fill="none" stroke="#c4673f" stroke-width="35" stroke-linecap="round"/>
</svg>
